<svg xmlns="http://www.w3.org/2000/svg" xmlns:xlink="http://www.w3.org/1999/xlink" version="1.1" class="marks" width="660" height="410" viewBox="0 0 660 410"><rect width="660" height="410" fill="white"/><g fill="none" stroke-miterlimit="10" transform="translate(51,86)"><g class="mark-group role-frame root" role="graphics-object" aria-roledescription="group mark container"><g transform="translate(0,0)"><path class="background" aria-hidden="true" d="M0.5,0.5h604v272h-604Z"/><g><g class="mark-group role-axis" aria-hidden="true"><g transform="translate(0.5,272.5)"><path class="background" aria-hidden="true" d="M0,0h0v0h0Z" pointer-events="none"/><g><g class="mark-rule role-axis-grid" pointer-events="none"><line transform="translate(25,-272)" x2="0" y2="272" stroke="#ddd" stroke-opacity="0.3" stroke-width="1" opacity="1"/><line transform="translate(75,-272)" x2="0" y2="272" stroke="#ddd" stroke-opacity="0.3" stroke-width="1" opacity="1"/><line transform="translate(126,-272)" x2="0" y2="272" stroke="#ddd" stroke-opacity="0.3" stroke-width="1" opacity="1"/><line transform="translate(176,-272)" x2="0" y2="272" stroke="#ddd" stroke-opacity="0.3" stroke-width="1" opacity="1"/><line transform="translate(226,-272)" x2="0" y2="272" stroke="#ddd" stroke-opacity="0.3" stroke-width="1" opacity="1"/><line transform="translate(277,-272)" x2="0" y2="272" stroke="#ddd" stroke-opacity="0.3" stroke-width="1" opacity="1"/><line transform="translate(327,-272)" x2="0" y2="272" stroke="#ddd" stroke-opacity="0.3" stroke-width="1" opacity="1"/><line transform="translate(378,-272)" x2="0" y2="272" stroke="#ddd" stroke-opacity="0.3" stroke-width="1" opacity="1"/><line transform="translate(428,-272)" x2="0" y2="272" stroke="#ddd" stroke-opacity="0.3" stroke-width="1" opacity="1"/><line transform="translate(478,-272)" x2="0" y2="272" stroke="#ddd" stroke-opacity="0.3" stroke-width="1" opacity="1"/><line transform="translate(529,-272)" x2="0" y2="272" stroke="#ddd" stroke-opacity="0.3" stroke-width="1" opacity="1"/><line transform="translate(579,-272)" x2="0" y2="272" stroke="#ddd" stroke-opacity="0.3" stroke-width="1" opacity="1"/></g></g><path class="foreground" aria-hidden="true" d="" pointer-events="none" display="none"/></g></g><g class="mark-group role-axis" aria-hidden="true"><g transform="translate(0.5,0.5)"><path class="background" aria-hidden="true" d="M0,0h0v0h0Z" pointer-events="none"/><g><g class="mark-rule role-axis-grid" pointer-events="none"><line transform="translate(0,272)" x2="604" y2="0" stroke="#ddd" stroke-opacity="0.3" stroke-width="1" opacity="1"/><line transform="translate(0,233)" x2="604" y2="0" stroke="#ddd" stroke-opacity="0.3" stroke-width="1" opacity="1"/><line transform="translate(0,194)" x2="604" y2="0" stroke="#ddd" stroke-opacity="0.3" stroke-width="1" opacity="1"/><line transform="translate(0,155)" x2="604" y2="0" stroke="#ddd" stroke-opacity="0.3" stroke-width="1" opacity="1"/><line transform="translate(0,117)" x2="604" y2="0" stroke="#ddd" stroke-opacity="0.3" stroke-width="1" opacity="1"/><line transform="translate(0,78)" x2="604" y2="0" stroke="#ddd" stroke-opacity="0.3" stroke-width="1" opacity="1"/><line transform="translate(0,39)" x2="604" y2="0" stroke="#ddd" stroke-opacity="0.3" stroke-width="1" opacity="1"/><line transform="translate(0,0)" x2="604" y2="0" stroke="#ddd" stroke-opacity="0.3" stroke-width="1" opacity="1"/></g></g><path class="foreground" aria-hidden="true" d="" pointer-events="none" display="none"/></g></g><g class="mark-group role-axis" role="graphics-symbol" aria-roledescription="axis" aria-label="X-axis titled 'Month' for a discrete scale with 12 values: Apr, Aug, Dec, Feb, Jan, ending with Sep"><g transform="translate(0.5,272.5)"><path class="background" aria-hidden="true" d="M0,0h0v0h0Z" pointer-events="none"/><g><g class="mark-rule role-axis-tick" pointer-events="none"><line transform="translate(25,0)" x2="0" y2="5" stroke="#888" stroke-width="1" opacity="1"/><line transform="translate(75,0)" x2="0" y2="5" stroke="#888" stroke-width="1" opacity="1"/><line transform="translate(126,0)" x2="0" y2="5" stroke="#888" stroke-width="1" opacity="1"/><line transform="translate(176,0)" x2="0" y2="5" stroke="#888" stroke-width="1" opacity="1"/><line transform="translate(226,0)" x2="0" y2="5" stroke="#888" stroke-width="1" opacity="1"/><line transform="translate(277,0)" x2="0" y2="5" stroke="#888" stroke-width="1" opacity="1"/><line transform="translate(327,0)" x2="0" y2="5" stroke="#888" stroke-width="1" opacity="1"/><line transform="translate(378,0)" x2="0" y2="5" stroke="#888" stroke-width="1" opacity="1"/><line transform="translate(428,0)" x2="0" y2="5" stroke="#888" stroke-width="1" opacity="1"/><line transform="translate(478,0)" x2="0" y2="5" stroke="#888" stroke-width="1" opacity="1"/><line transform="translate(529,0)" x2="0" y2="5" stroke="#888" stroke-width="1" opacity="1"/><line transform="translate(579,0)" x2="0" y2="5" stroke="#888" stroke-width="1" opacity="1"/></g><g class="mark-text role-axis-label" pointer-events="none"><text text-anchor="end" transform="translate(25.16666666666663,7) rotate(315) translate(0,8)" font-family="sans-serif" font-size="10px" fill="#000" opacity="1">Apr</text><text text-anchor="end" transform="translate(75.49999999999997,7) rotate(315) translate(0,8)" font-family="sans-serif" font-size="10px" fill="#000" opacity="1">Aug</text><text text-anchor="end" transform="translate(125.8333333333333,7) rotate(315) translate(0,8)" font-family="sans-serif" font-size="10px" fill="#000" opacity="1">Dec</text><text text-anchor="end" transform="translate(176.16666666666663,7) rotate(315) translate(0,8)" font-family="sans-serif" font-size="10px" fill="#000" opacity="1">Feb</text><text text-anchor="end" transform="translate(226.49999999999997,7) rotate(315) translate(0,8)" font-family="sans-serif" font-size="10px" fill="#000" opacity="1">Jan</text><text text-anchor="end" transform="translate(276.8333333333333,7) rotate(315) translate(0,8)" font-family="sans-serif" font-size="10px" fill="#000" opacity="1">Jul</text><text text-anchor="end" transform="translate(327.16666666666663,7) rotate(315) translate(0,8)" font-family="sans-serif" font-size="10px" fill="#000" opacity="1">Jun</text><text text-anchor="end" transform="translate(377.5,7) rotate(315) translate(0,8)" font-family="sans-serif" font-size="10px" fill="#000" opacity="1">Mar</text><text text-anchor="end" transform="translate(427.8333333333333,7) rotate(315) translate(0,8)" font-family="sans-serif" font-size="10px" fill="#000" opacity="1">May</text><text text-anchor="end" transform="translate(478.16666666666663,7) rotate(315) translate(0,8)" font-family="sans-serif" font-size="10px" fill="#000" opacity="1">Nov</text><text text-anchor="end" transform="translate(528.5,7) rotate(315) translate(0,8)" font-family="sans-serif" font-size="10px" fill="#000" opacity="1">Oct</text><text text-anchor="end" transform="translate(578.8333333333334,7) rotate(315) translate(0,8)" font-family="sans-serif" font-size="10px" fill="#000" opacity="1">Sep</text></g><g class="mark-rule role-axis-domain" pointer-events="none"><line transform="translate(0,0)" x2="604" y2="0" stroke="#888" stroke-width="1" opacity="1"/></g><g class="mark-text role-axis-title" pointer-events="none"><text text-anchor="middle" transform="translate(302,44.04163056034264)" font-family="sans-serif" font-size="11px" font-weight="bold" fill="#000" opacity="1">Month</text></g></g><path class="foreground" aria-hidden="true" d="" pointer-events="none" display="none"/></g></g><g class="mark-group role-axis" role="graphics-symbol" aria-roledescription="axis" aria-label="Y-axis titled 'Users' for a linear scale with values from 0 to 350"><g transform="translate(0.5,0.5)"><path class="background" aria-hidden="true" d="M0,0h0v0h0Z" pointer-events="none"/><g><g class="mark-rule role-axis-tick" pointer-events="none"><line transform="translate(0,272)" x2="-5" y2="0" stroke="#888" stroke-width="1" opacity="1"/><line transform="translate(0,233)" x2="-5" y2="0" stroke="#888" stroke-width="1" opacity="1"/><line transform="translate(0,194)" x2="-5" y2="0" stroke="#888" stroke-width="1" opacity="1"/><line transform="translate(0,155)" x2="-5" y2="0" stroke="#888" stroke-width="1" opacity="1"/><line transform="translate(0,117)" x2="-5" y2="0" stroke="#888" stroke-width="1" opacity="1"/><line transform="translate(0,78)" x2="-5" y2="0" stroke="#888" stroke-width="1" opacity="1"/><line transform="translate(0,39)" x2="-5" y2="0" stroke="#888" stroke-width="1" opacity="1"/><line transform="translate(0,0)" x2="-5" y2="0" stroke="#888" stroke-width="1" opacity="1"/></g><g class="mark-text role-axis-label" pointer-events="none"><text text-anchor="end" transform="translate(-7,275)" font-family="sans-serif" font-size="10px" fill="#000" opacity="1">0</text><text text-anchor="end" transform="translate(-7,236.14285714285717)" font-family="sans-serif" font-size="10px" fill="#000" opacity="1">50</text><text text-anchor="end" transform="translate(-7,197.28571428571428)" font-family="sans-serif" font-size="10px" fill="#000" opacity="1">100</text><text text-anchor="end" transform="translate(-7,158.42857142857142)" font-family="sans-serif" font-size="10px" fill="#000" opacity="1">150</text><text text-anchor="end" transform="translate(-7,119.57142857142858)" font-family="sans-serif" font-size="10px" fill="#000" opacity="1">200</text><text text-anchor="end" transform="translate(-7,80.71428571428571)" font-family="sans-serif" font-size="10px" fill="#000" opacity="1">250</text><text text-anchor="end" transform="translate(-7,41.85714285714287)" font-family="sans-serif" font-size="10px" fill="#000" opacity="1">300</text><text text-anchor="end" transform="translate(-7,3)" font-family="sans-serif" font-size="10px" fill="#000" opacity="1">350</text></g><g class="mark-rule role-axis-domain" pointer-events="none"><line transform="translate(0,272)" x2="0" y2="-272" stroke="#888" stroke-width="1" opacity="1"/></g><g class="mark-text role-axis-title" pointer-events="none"><text text-anchor="middle" transform="translate(-35,136) rotate(-90) translate(0,-2)" font-family="sans-serif" font-size="11px" font-weight="bold" fill="#000" opacity="1">Users</text></g></g><path class="foreground" aria-hidden="true" d="" pointer-events="none" display="none"/></g></g><g class="mark-group role-scope layer_0_pathgroup" role="graphics-object" aria-roledescription="group mark container"><g transform="translate(0,0)"><path class="background" aria-hidden="true" d="M0,0h604v272h-604Z"/><g><g class="mark-line role-mark layer_0_marks" role="graphics-object" aria-roledescription="line mark container"><path aria-label="Month: Apr; Users: 173; device_type: desktop; month: Apr; users: 173; quarter: Q2; region: North" role="graphics-symbol" aria-roledescription="line mark" d="M25.167,137.554L75.5,64.503L125.833,22.537L176.167,34.971L226.5,127.451L276.833,150.766L327.167,105.691L377.5,87.817L427.833,109.577L478.167,81.6L528.5,118.126L578.833,47.406" stroke="#34d399" stroke-width="2"/></g></g><path class="foreground" aria-hidden="true" d="" display="none"/></g><g transform="translate(0,0)"><path class="background" aria-hidden="true" d="M0,0h604v272h-604Z"/><g><g class="mark-line role-mark layer_0_marks" role="graphics-object" aria-roledescription="line mark container"><path aria-label="Month: Apr; Users: 190; device_type: mobile; month: Apr; users: 190; quarter: Q2; region: North" role="graphics-symbol" aria-roledescription="line mark" d="M25.167,124.343L75.5,132.114L125.833,31.086L176.167,116.571L226.5,209.829L276.833,147.657L327.167,163.2L377.5,178.743L427.833,170.971L478.167,54.4L528.5,77.714L578.833,101.029" stroke="#10b981" stroke-width="2"/></g></g><path class="foreground" aria-hidden="true" d="" display="none"/></g></g><g class="mark-symbol role-mark layer_1_marks" role="graphics-object" aria-roledescription="symbol mark container"><path aria-label="Month: Jan; Users: 186; device_type: desktop; month: Jan; users: 186; quarter: Q1; region: North" role="graphics-symbol" aria-roledescription="point" transform="translate(226.49999999999997,127.45142857142856)" d="M3.536,0A3.536,3.536,0,1,1,-3.536,0A3.536,3.536,0,1,1,3.536,0" fill="#34d399" stroke-width="2" opacity="1"/><path aria-label="Month: Jan; Users: 80; device_type: mobile; month: Jan; users: 80; quarter: Q1; region: North" role="graphics-symbol" aria-roledescription="point" transform="translate(226.49999999999997,209.82857142857145)" d="M3.536,0A3.536,3.536,0,1,1,-3.536,0A3.536,3.536,0,1,1,3.536,0" fill="#10b981" stroke-width="2" opacity="1"/><path aria-label="Month: Feb; Users: 305; device_type: desktop; month: Feb; users: 305; quarter: Q1; region: North" role="graphics-symbol" aria-roledescription="point" transform="translate(176.16666666666663,34.97142857142857)" d="M3.536,0A3.536,3.536,0,1,1,-3.536,0A3.536,3.536,0,1,1,3.536,0" fill="#34d399" stroke-width="2" opacity="1"/><path aria-label="Month: Feb; Users: 200; device_type: mobile; month: Feb; users: 200; quarter: Q1; region: North" role="graphics-symbol" aria-roledescription="point" transform="translate(176.16666666666663,116.57142857142858)" d="M3.536,0A3.536,3.536,0,1,1,-3.536,0A3.536,3.536,0,1,1,3.536,0" fill="#10b981" stroke-width="2" opacity="1"/><path aria-label="Month: Mar; Users: 237; device_type: desktop; month: Mar; users: 237; quarter: Q1; region: North" role="graphics-symbol" aria-roledescription="point" transform="translate(377.5,87.81714285714285)" d="M3.536,0A3.536,3.536,0,1,1,-3.536,0A3.536,3.536,0,1,1,3.536,0" fill="#34d399" stroke-width="2" opacity="1"/><path aria-label="Month: Mar; Users: 120; device_type: mobile; month: Mar; users: 120; quarter: Q1; region: North" role="graphics-symbol" aria-roledescription="point" transform="translate(377.5,178.74285714285713)" d="M3.536,0A3.536,3.536,0,1,1,-3.536,0A3.536,3.536,0,1,1,3.536,0" fill="#10b981" stroke-width="2" opacity="1"/><path aria-label="Month: Apr; Users: 173; device_type: desktop; month: Apr; users: 173; quarter: Q2; region: North" role="graphics-symbol" aria-roledescription="point" transform="translate(25.16666666666663,137.55428571428573)" d="M3.536,0A3.536,3.536,0,1,1,-3.536,0A3.536,3.536,0,1,1,3.536,0" fill="#34d399" stroke-width="2" opacity="1"/><path aria-label="Month: Apr; Users: 190; device_type: mobile; month: Apr; users: 190; quarter: Q2; region: North" role="graphics-symbol" aria-roledescription="point" transform="translate(25.16666666666663,124.34285714285716)" d="M3.536,0A3.536,3.536,0,1,1,-3.536,0A3.536,3.536,0,1,1,3.536,0" fill="#10b981" stroke-width="2" opacity="1"/><path aria-label="Month: May; Users: 209; device_type: desktop; month: May; users: 209; quarter: Q2; region: North" role="graphics-symbol" aria-roledescription="point" transform="translate(427.8333333333333,109.57714285714285)" d="M3.536,0A3.536,3.536,0,1,1,-3.536,0A3.536,3.536,0,1,1,3.536,0" fill="#34d399" stroke-width="2" opacity="1"/><path aria-label="Month: May; Users: 130; device_type: mobile; month: May; users: 130; quarter: Q2; region: North" role="graphics-symbol" aria-roledescription="point" transform="translate(427.8333333333333,170.97142857142856)" d="M3.536,0A3.536,3.536,0,1,1,-3.536,0A3.536,3.536,0,1,1,3.536,0" fill="#10b981" stroke-width="2" opacity="1"/><path aria-label="Month: Jun; Users: 214; device_type: desktop; month: Jun; users: 214; quarter: Q2; region: North" role="graphics-symbol" aria-roledescription="point" transform="translate(327.16666666666663,105.69142857142857)" d="M3.536,0A3.536,3.536,0,1,1,-3.536,0A3.536,3.536,0,1,1,3.536,0" fill="#34d399" stroke-width="2" opacity="1"/><path aria-label="Month: Jun; Users: 140; device_type: mobile; month: Jun; users: 140; quarter: Q2; region: North" role="graphics-symbol" aria-roledescription="point" transform="translate(327.16666666666663,163.2)" d="M3.536,0A3.536,3.536,0,1,1,-3.536,0A3.536,3.536,0,1,1,3.536,0" fill="#10b981" stroke-width="2" opacity="1"/><path aria-label="Month: Jul; Users: 156; device_type: desktop; month: Jul; users: 156; quarter: Q3; region: South" role="graphics-symbol" aria-roledescription="point" transform="translate(276.8333333333333,150.7657142857143)" d="M3.536,0A3.536,3.536,0,1,1,-3.536,0A3.536,3.536,0,1,1,3.536,0" fill="#34d399" stroke-width="2" opacity="1"/><path aria-label="Month: Jul; Users: 160; device_type: mobile; month: Jul; users: 160; quarter: Q3; region: South" role="graphics-symbol" aria-roledescription="point" transform="translate(276.8333333333333,147.65714285714287)" d="M3.536,0A3.536,3.536,0,1,1,-3.536,0A3.536,3.536,0,1,1,3.536,0" fill="#10b981" stroke-width="2" opacity="1"/><path aria-label="Month: Aug; Users: 267; device_type: desktop; month: Aug; users: 267; quarter: Q3; region: South" role="graphics-symbol" aria-roledescription="point" transform="translate(75.49999999999997,64.50285714285712)" d="M3.536,0A3.536,3.536,0,1,1,-3.536,0A3.536,3.536,0,1,1,3.536,0" fill="#34d399" stroke-width="2" opacity="1"/><path aria-label="Month: Aug; Users: 180; device_type: mobile; month: Aug; users: 180; quarter: Q3; region: South" role="graphics-symbol" aria-roledescription="point" transform="translate(75.49999999999997,132.11428571428573)" d="M3.536,0A3.536,3.536,0,1,1,-3.536,0A3.536,3.536,0,1,1,3.536,0" fill="#10b981" stroke-width="2" opacity="1"/><path aria-label="Month: Sep; Users: 289; device_type: desktop; month: Sep; users: 289; quarter: Q3; region: South" role="graphics-symbol" aria-roledescription="point" transform="translate(578.8333333333334,47.40571428571428)" d="M3.536,0A3.536,3.536,0,1,1,-3.536,0A3.536,3.536,0,1,1,3.536,0" fill="#34d399" stroke-width="2" opacity="1"/><path aria-label="Month: Sep; Users: 220; device_type: mobile; month: Sep; users: 220; quarter: Q3; region: South" role="graphics-symbol" aria-roledescription="point" transform="translate(578.8333333333334,101.02857142857144)" d="M3.536,0A3.536,3.536,0,1,1,-3.536,0A3.536,3.536,0,1,1,3.536,0" fill="#10b981" stroke-width="2" opacity="1"/><path aria-label="Month: Oct; Users: 198; device_type: desktop; month: Oct; users: 198; quarter: Q4; region: South" role="graphics-symbol" aria-roledescription="point" transform="translate(528.5,118.12571428571428)" d="M3.536,0A3.536,3.536,0,1,1,-3.536,0A3.536,3.536,0,1,1,3.536,0" fill="#34d399" stroke-width="2" opacity="1"/><path aria-label="Month: Oct; Users: 250; device_type: mobile; month: Oct; users: 250; quarter: Q4; region: South" role="graphics-symbol" aria-roledescription="point" transform="translate(528.5,77.71428571428571)" d="M3.536,0A3.536,3.536,0,1,1,-3.536,0A3.536,3.536,0,1,1,3.536,0" fill="#10b981" stroke-width="2" opacity="1"/><path aria-label="Month: Nov; Users: 245; device_type: desktop; month: Nov; users: 245; quarter: Q4; region: South" role="graphics-symbol" aria-roledescription="point" transform="translate(478.16666666666663,81.60000000000001)" d="M3.536,0A3.536,3.536,0,1,1,-3.536,0A3.536,3.536,0,1,1,3.536,0" fill="#34d399" stroke-width="2" opacity="1"/><path aria-label="Month: Nov; Users: 280; device_type: mobile; month: Nov; users: 280; quarter: Q4; region: South" role="graphics-symbol" aria-roledescription="point" transform="translate(478.16666666666663,54.39999999999999)" d="M3.536,0A3.536,3.536,0,1,1,-3.536,0A3.536,3.536,0,1,1,3.536,0" fill="#10b981" stroke-width="2" opacity="1"/><path aria-label="Month: Dec; Users: 321; device_type: desktop; month: Dec; users: 321; quarter: Q4; region: South" role="graphics-symbol" aria-roledescription="point" transform="translate(125.8333333333333,22.537142857142854)" d="M3.536,0A3.536,3.536,0,1,1,-3.536,0A3.536,3.536,0,1,1,3.536,0" fill="#34d399" stroke-width="2" opacity="1"/><path aria-label="Month: Dec; Users: 310; device_type: mobile; month: Dec; users: 310; quarter: Q4; region: South" role="graphics-symbol" aria-roledescription="point" transform="translate(125.8333333333333,31.085714285714296)" d="M3.536,0A3.536,3.536,0,1,1,-3.536,0A3.536,3.536,0,1,1,3.536,0" fill="#10b981" stroke-width="2" opacity="1"/></g><g class="mark-group role-legend" role="graphics-symbol" aria-roledescription="legend" aria-label="Symbol legend titled 'device_type' for fill color and stroke color with 2 values: desktop, mobile"><g transform="translate(0,-47)"><path class="background" aria-hidden="true" d="M0,0h137v29h-137Z" pointer-events="none"/><g><g class="mark-group role-legend-entry"><g transform="translate(0,16)"><path class="background" aria-hidden="true" d="M0,0h0v0h0Z" pointer-events="none"/><g><g class="mark-group role-scope" role="graphics-object" aria-roledescription="group mark container"><g transform="translate(0,0.25)"><path class="background" aria-hidden="true" d="M0,0h72v12.5h-72Z" pointer-events="none" opacity="1"/><g><g class="mark-symbol role-legend-symbol" pointer-events="none"><path transform="translate(6,6)" d="M5,0A5,5,0,1,1,-5,0A5,5,0,1,1,5,0" fill="#34d399" stroke="#34d399" stroke-width="1.5" opacity="1"/></g><g class="mark-text role-legend-label" pointer-events="none"><text text-anchor="start" transform="translate(16,9)" font-family="sans-serif" font-size="10px" fill="#000" opacity="1">desktop</text></g></g><path class="foreground" aria-hidden="true" d="" pointer-events="none" display="none"/></g><g transform="translate(73,0.25)"><path class="background" aria-hidden="true" d="M0,0h64v12.5h-64Z" pointer-events="none" opacity="1"/><g><g class="mark-symbol role-legend-symbol" pointer-events="none"><path transform="translate(6,6)" d="M5,0A5,5,0,1,1,-5,0A5,5,0,1,1,5,0" fill="#10b981" stroke="#10b981" stroke-width="1.5" opacity="1"/></g><g class="mark-text role-legend-label" pointer-events="none"><text text-anchor="start" transform="translate(16,9)" font-family="sans-serif" font-size="10px" fill="#000" opacity="1">mobile</text></g></g><path class="foreground" aria-hidden="true" d="" pointer-events="none" display="none"/></g></g></g><path class="foreground" aria-hidden="true" d="" pointer-events="none" display="none"/></g></g><g class="mark-text role-legend-title" pointer-events="none"><text text-anchor="start" transform="translate(0,9)" font-family="sans-serif" font-size="11px" font-weight="bold" fill="#000" opacity="1">device_type</text></g></g><path class="foreground" aria-hidden="true" d="" pointer-events="none" display="none"/></g></g><g class="mark-group role-title"><g transform="translate(302,-81)"><path class="background" aria-hidden="true" d="M0,0h0v0h0Z" pointer-events="none"/><g><g class="mark-text role-title-text" role="graphics-symbol" aria-roledescription="title" aria-label="Title text 'Desktop vs Mobile Users Trend'" pointer-events="none"><text text-anchor="middle" transform="translate(0,13)" font-family="sans-serif" font-size="16px" font-weight="600" fill="#000" opacity="1">Desktop vs Mobile Users Trend</text></g><g class="mark-text role-title-subtitle" role="graphics-symbol" aria-roledescription="subtitle" aria-label="Subtitle text 'Comparing user acquisition across device types'" pointer-events="none"><text text-anchor="middle" transform="translate(0,28)" font-family="sans-serif" font-size="12px" fill="#666" opacity="1">Comparing user acquisition across device types</text></g></g><path class="foreground" aria-hidden="true" d="" pointer-events="none" display="none"/></g></g></g><path class="foreground" aria-hidden="true" d="" display="none"/></g></g></g></svg>