<svg width="1494" height="1664" xmlns="http://www.w3.org/2000/svg" xmlns:xlink="http://www.w3.org/1999/xlink" xml:space="preserve" overflow="hidden"><defs><linearGradient x1="1644" y1="738.969" x2="0" y2="738.969" gradientUnits="userSpaceOnUse" spreadMethod="reflect" id="fill0"><stop offset="0" stop-color="#F0F8FD" stop-opacity="1"/><stop offset="0.16" stop-color="#B2DEF3" stop-opacity="1"/><stop offset="0.45" stop-color="#74C4E9" stop-opacity="1"/><stop offset="0.59" stop-color="#4E8C80" stop-opacity="1"/><stop offset="1" stop-color="#275317" stop-opacity="1"/></linearGradient><linearGradient x1="1644.41" y1="1034.94" x2="1463.46" y2="1215.89" gradientUnits="userSpaceOnUse" spreadMethod="reflect" id="fill1"><stop offset="0" stop-color="#F0F8FD" stop-opacity="1"/><stop offset="0.17" stop-color="#F0F8FD" stop-opacity="1"/><stop offset="0.24" stop-color="#275317" stop-opacity="1"/><stop offset="1" stop-color="#275317" stop-opacity="1"/></linearGradient><linearGradient x1="1679.35" y1="1069.88" x2="1498.4" y2="1250.83" gradientUnits="userSpaceOnUse" spreadMethod="reflect" id="fill2"><stop offset="0" stop-color="#F0F8FD" stop-opacity="1"/><stop offset="0.01" stop-color="#F0F8FD" stop-opacity="1"/><stop offset="0.08" stop-color="#275317" stop-opacity="1"/><stop offset="1" stop-color="#275317" stop-opacity="1"/></linearGradient><linearGradient x1="2119.71" y1="769.279" x2="1670.75" y2="1218.23" gradientUnits="userSpaceOnUse" spreadMethod="reflect" id="fill3"><stop offset="0" stop-color="#F0F8FD" stop-opacity="1"/><stop offset="0.35" stop-color="#F0F8FD" stop-opacity="1"/><stop offset="0.42" stop-color="#275317" stop-opacity="1"/><stop offset="1" stop-color="#275317" stop-opacity="1"/></linearGradient><linearGradient x1="2154.65" y1="804.219" x2="1705.69" y2="1253.17" gradientUnits="userSpaceOnUse" spreadMethod="reflect" id="fill4"><stop offset="0" stop-color="#F0F8FD" stop-opacity="1"/><stop offset="0.27" stop-color="#F0F8FD" stop-opacity="1"/><stop offset="0.34" stop-color="#275317" stop-opacity="1"/><stop offset="1" stop-color="#275317" stop-opacity="1"/></linearGradient><linearGradient x1="2189.58" y1="839.159" x2="1740.63" y2="1288.11" gradientUnits="userSpaceOnUse" spreadMethod="reflect" id="fill5"><stop offset="0" stop-color="#F0F8FD" stop-opacity="1"/><stop offset="0.19" stop-color="#F0F8FD" stop-opacity="1"/><stop offset="0.26" stop-color="#275317" stop-opacity="1"/><stop offset="1" stop-color="#275317" stop-opacity="1"/></linearGradient><linearGradient x1="2224.52" y1="874.098" x2="1775.57" y2="1323.05" gradientUnits="userSpaceOnUse" spreadMethod="reflect" id="fill6"><stop offset="0" stop-color="#F0F8FD" stop-opacity="1"/><stop offset="0.11" stop-color="#F0F8FD" stop-opacity="1"/><stop offset="0.18" stop-color="#275317" stop-opacity="1"/><stop offset="1" stop-color="#275317" stop-opacity="1"/></linearGradient><linearGradient x1="2259.46" y1="909.038" x2="1810.51" y2="1357.99" gradientUnits="userSpaceOnUse" spreadMethod="reflect" id="fill7"><stop offset="0" stop-color="#F0F8FD" stop-opacity="1"/><stop offset="0.04" stop-color="#F0F8FD" stop-opacity="1"/><stop offset="0.11" stop-color="#275317" stop-opacity="1"/><stop offset="1" stop-color="#275317" stop-opacity="1"/></linearGradient><linearGradient x1="2393.13" y1="845.254" x2="2023.92" y2="1214.46" gradientUnits="userSpaceOnUse" spreadMethod="reflect" id="fill8"><stop offset="0" stop-color="#F0F8FD" stop-opacity="1"/><stop offset="0.31" stop-color="#F0F8FD" stop-opacity="1"/><stop offset="0.38" stop-color="#275317" stop-opacity="1"/><stop offset="1" stop-color="#275317" stop-opacity="1"/></linearGradient><linearGradient x1="2428.07" y1="880.193" x2="2058.86" y2="1249.4" gradientUnits="userSpaceOnUse" spreadMethod="reflect" id="fill9"><stop offset="0" stop-color="#F0F8FD" stop-opacity="1"/><stop offset="0.22" stop-color="#F0F8FD" stop-opacity="1"/><stop offset="0.29" stop-color="#275317" stop-opacity="1"/><stop offset="1" stop-color="#275317" stop-opacity="1"/></linearGradient><linearGradient x1="2463.01" y1="915.133" x2="2093.8" y2="1284.34" gradientUnits="userSpaceOnUse" spreadMethod="reflect" id="fill10"><stop offset="0" stop-color="#F0F8FD" stop-opacity="1"/><stop offset="0.13" stop-color="#F0F8FD" stop-opacity="1"/><stop offset="0.2" stop-color="#275317" stop-opacity="1"/><stop offset="1" stop-color="#275317" stop-opacity="1"/></linearGradient><linearGradient x1="2497.94" y1="950.072" x2="2128.74" y2="1319.28" gradientUnits="userSpaceOnUse" spreadMethod="reflect" id="fill11"><stop offset="0" stop-color="#F0F8FD" stop-opacity="1"/><stop offset="0.04" stop-color="#F0F8FD" stop-opacity="1"/><stop offset="0.11" stop-color="#275317" stop-opacity="1"/><stop offset="1" stop-color="#275317" stop-opacity="1"/></linearGradient><linearGradient x1="2765.5" y1="1031.92" x2="2396.29" y2="1401.12" gradientUnits="userSpaceOnUse" spreadMethod="reflect" id="fill12"><stop offset="0" stop-color="#F0F8FD" stop-opacity="1"/><stop offset="0.09" stop-color="#F0F8FD" stop-opacity="1"/><stop offset="0.16" stop-color="#275317" stop-opacity="1"/><stop offset="1" stop-color="#275317" stop-opacity="1"/></linearGradient><linearGradient x1="2801.24" y1="1066.05" x2="2432.04" y2="1435.25" gradientUnits="userSpaceOnUse" spreadMethod="reflect" id="fill13"><stop offset="0" stop-color="#F0F8FD" stop-opacity="1"/><stop offset="0.01" stop-color="#F0F8FD" stop-opacity="1"/><stop offset="0.08" stop-color="#275317" stop-opacity="1"/><stop offset="1" stop-color="#275317" stop-opacity="1"/></linearGradient></defs><g transform="translate(-1434 -270)"><g><path d="M0 738.97 369.485 0 1274.52 0 1644 738.97 1274.52 1477.94 369.485 1477.94Z" stroke="#275317" stroke-width="13.75" stroke-linecap="butt" stroke-linejoin="miter" stroke-miterlimit="8" stroke-opacity="1" fill="url(#fill0)" fill-rule="evenodd" transform="matrix(-6.12323e-17 -1 -1 6.12323e-17 2920 1923)"/><path d="M1703.91 1094.43 1724.67 1115.2 1543.72 1296.15 1522.95 1275.39Z" fill="#275317" fill-rule="nonzero" fill-opacity="1"/><path d="M2522.5 974.631 2543.27 995.393 2174.06 1364.6 2153.3 1343.84Z" fill="#275317" fill-rule="nonzero" fill-opacity="1"/><path d="M2557.44 1009.57 2578.2 1030.33 2301.85 1306.68 2281.09 1285.92Z" fill="#275317" fill-rule="nonzero" fill-opacity="1"/><path d="M2592.38 1044.51 2613.14 1065.27 2336.79 1341.62 2316.03 1320.86Z" fill="#275317" fill-rule="nonzero" fill-opacity="1"/><path d="M2627.32 1079.45 2648.08 1100.21 2371.73 1376.56 2350.97 1355.8Z" fill="#275317" fill-rule="nonzero" fill-opacity="1"/><path d="M2824.99 1091.42 2845.76 1112.18 2663.96 1293.97 2643.2 1273.21Z" fill="#275317" fill-rule="nonzero" fill-opacity="1"/><path d="M2859.93 1126.36 2880.7 1147.12 2698.9 1328.91 2678.14 1308.15Z" fill="#275317" fill-rule="nonzero" fill-opacity="1"/><path d="M2894.87 1161.29 2915.63 1182.05 2733.83 1363.85 2713.07 1343.09Z" fill="#275317" fill-rule="nonzero" fill-opacity="1"/><path d="M1634.03 1024.55 1654.79 1045.32 1473.84 1226.27 1453.08 1205.51Z" fill="url(#fill1)" fill-rule="nonzero"/><path d="M1668.97 1059.49 1689.73 1080.26 1508.78 1261.21 1488.01 1240.45Z" fill="url(#fill2)" fill-rule="nonzero"/><path d="M2109.32 758.899 2130.09 779.66 1681.13 1228.61 1660.37 1207.85Z" fill="url(#fill3)" fill-rule="nonzero"/><path d="M2144.26 793.838 2165.03 814.6 1716.07 1263.55 1695.31 1242.79Z" fill="url(#fill4)" fill-rule="nonzero"/><path d="M2179.2 828.778 2199.97 849.54 1751.01 1298.49 1730.25 1277.73Z" fill="url(#fill5)" fill-rule="nonzero"/><path d="M2214.14 863.717 2234.9 884.479 1785.95 1333.43 1765.19 1312.67Z" fill="url(#fill6)" fill-rule="nonzero"/><path d="M2249.08 898.657 2269.84 919.418 1820.89 1368.37 1800.13 1347.61Z" fill="url(#fill7)" fill-rule="nonzero"/><path d="M2382.75 834.873 2403.51 855.635 2034.3 1224.84 2013.54 1204.08Z" fill="url(#fill8)" fill-rule="nonzero"/><path d="M2417.69 869.812 2438.45 890.574 2069.24 1259.78 2048.48 1239.02Z" fill="url(#fill9)" fill-rule="nonzero"/><path d="M2452.62 904.752 2473.39 925.514 2104.18 1294.72 2083.42 1273.96Z" fill="url(#fill10)" fill-rule="nonzero"/><path d="M2487.56 939.692 2508.33 960.453 2139.12 1329.66 2118.36 1308.9Z" fill="url(#fill11)" fill-rule="nonzero"/><path d="M2755.11 1021.54 2775.88 1042.3 2406.67 1411.5 2385.91 1390.74Z" fill="url(#fill12)" fill-rule="nonzero"/><path d="M2790.86 1055.67 2811.62 1076.43 2442.42 1445.64 2421.66 1424.87Z" fill="url(#fill13)" fill-rule="nonzero"/></g></g></svg>