<svg width="1494" height="1664" xmlns="http://www.w3.org/2000/svg" xmlns:xlink="http://www.w3.org/1999/xlink" xml:space="preserve" overflow="hidden"><defs><linearGradient x1="1644" y1="738.969" x2="0" y2="738.969" gradientUnits="userSpaceOnUse" spreadMethod="reflect" id="fill0"><stop offset="0" stop-color="#F0F8FD" stop-opacity="1"/><stop offset="0.16" stop-color="#B2DEF3" stop-opacity="1"/><stop offset="0.45" stop-color="#74C4E9" stop-opacity="1"/><stop offset="0.59" stop-color="#4E8C80" stop-opacity="1"/><stop offset="1" stop-color="#275317" stop-opacity="1"/></linearGradient><linearGradient x1="1641.07" y1="1002.7" x2="1460.11" y2="1183.65" gradientUnits="userSpaceOnUse" spreadMethod="reflect" id="fill1"><stop offset="0" stop-color="#F0F8FD" stop-opacity="1"/><stop offset="0.17" stop-color="#F0F8FD" stop-opacity="1"/><stop offset="0.24" stop-color="#275317" stop-opacity="1"/><stop offset="1" stop-color="#275317" stop-opacity="1"/></linearGradient><linearGradient x1="1675.93" y1="1037.56" x2="1494.97" y2="1218.51" gradientUnits="userSpaceOnUse" spreadMethod="reflect" id="fill2"><stop offset="0" stop-color="#F0F8FD" stop-opacity="1"/><stop offset="0.01" stop-color="#F0F8FD" stop-opacity="1"/><stop offset="0.08" stop-color="#275317" stop-opacity="1"/><stop offset="1" stop-color="#275317" stop-opacity="1"/></linearGradient><linearGradient x1="2116.12" y1="736.799" x2="1667.16" y2="1185.75" gradientUnits="userSpaceOnUse" spreadMethod="reflect" id="fill3"><stop offset="0" stop-color="#F0F8FD" stop-opacity="1"/><stop offset="0.35" stop-color="#F0F8FD" stop-opacity="1"/><stop offset="0.42" stop-color="#275317" stop-opacity="1"/><stop offset="1" stop-color="#275317" stop-opacity="1"/></linearGradient><linearGradient x1="2150.98" y1="771.657" x2="1702.02" y2="1220.61" gradientUnits="userSpaceOnUse" spreadMethod="reflect" id="fill4"><stop offset="0" stop-color="#F0F8FD" stop-opacity="1"/><stop offset="0.27" stop-color="#F0F8FD" stop-opacity="1"/><stop offset="0.34" stop-color="#275317" stop-opacity="1"/><stop offset="1" stop-color="#275317" stop-opacity="1"/></linearGradient><linearGradient x1="2185.83" y1="806.516" x2="1736.88" y2="1255.47" gradientUnits="userSpaceOnUse" spreadMethod="reflect" id="fill5"><stop offset="0" stop-color="#F0F8FD" stop-opacity="1"/><stop offset="0.19" stop-color="#F0F8FD" stop-opacity="1"/><stop offset="0.26" stop-color="#275317" stop-opacity="1"/><stop offset="1" stop-color="#275317" stop-opacity="1"/></linearGradient><linearGradient x1="2220.69" y1="841.374" x2="1771.74" y2="1290.33" gradientUnits="userSpaceOnUse" spreadMethod="reflect" id="fill6"><stop offset="0" stop-color="#F0F8FD" stop-opacity="1"/><stop offset="0.11" stop-color="#F0F8FD" stop-opacity="1"/><stop offset="0.18" stop-color="#275317" stop-opacity="1"/><stop offset="1" stop-color="#275317" stop-opacity="1"/></linearGradient><linearGradient x1="2255.55" y1="876.232" x2="1806.6" y2="1325.19" gradientUnits="userSpaceOnUse" spreadMethod="reflect" id="fill7"><stop offset="0" stop-color="#F0F8FD" stop-opacity="1"/><stop offset="0.04" stop-color="#F0F8FD" stop-opacity="1"/><stop offset="0.11" stop-color="#275317" stop-opacity="1"/><stop offset="1" stop-color="#275317" stop-opacity="1"/></linearGradient><linearGradient x1="2389.13" y1="812.367" x2="2019.93" y2="1181.57" gradientUnits="userSpaceOnUse" spreadMethod="reflect" id="fill8"><stop offset="0" stop-color="#F0F8FD" stop-opacity="1"/><stop offset="0.31" stop-color="#F0F8FD" stop-opacity="1"/><stop offset="0.38" stop-color="#275317" stop-opacity="1"/><stop offset="1" stop-color="#275317" stop-opacity="1"/></linearGradient><linearGradient x1="2423.99" y1="847.226" x2="2054.79" y2="1216.43" gradientUnits="userSpaceOnUse" spreadMethod="reflect" id="fill9"><stop offset="0" stop-color="#F0F8FD" stop-opacity="1"/><stop offset="0.22" stop-color="#F0F8FD" stop-opacity="1"/><stop offset="0.29" stop-color="#275317" stop-opacity="1"/><stop offset="1" stop-color="#275317" stop-opacity="1"/></linearGradient><linearGradient x1="2458.85" y1="882.085" x2="2089.64" y2="1251.29" gradientUnits="userSpaceOnUse" spreadMethod="reflect" id="fill10"><stop offset="0" stop-color="#F0F8FD" stop-opacity="1"/><stop offset="0.13" stop-color="#F0F8FD" stop-opacity="1"/><stop offset="0.2" stop-color="#275317" stop-opacity="1"/><stop offset="1" stop-color="#275317" stop-opacity="1"/></linearGradient><linearGradient x1="2493.71" y1="916.943" x2="2124.5" y2="1286.15" gradientUnits="userSpaceOnUse" spreadMethod="reflect" id="fill11"><stop offset="0" stop-color="#F0F8FD" stop-opacity="1"/><stop offset="0.04" stop-color="#F0F8FD" stop-opacity="1"/><stop offset="0.11" stop-color="#275317" stop-opacity="1"/><stop offset="1" stop-color="#275317" stop-opacity="1"/></linearGradient><linearGradient x1="2760.85" y1="998.382" x2="2391.65" y2="1367.59" gradientUnits="userSpaceOnUse" spreadMethod="reflect" id="fill12"><stop offset="0" stop-color="#F0F8FD" stop-opacity="1"/><stop offset="0.09" stop-color="#F0F8FD" stop-opacity="1"/><stop offset="0.16" stop-color="#275317" stop-opacity="1"/><stop offset="1" stop-color="#275317" stop-opacity="1"/></linearGradient><linearGradient x1="2796.52" y1="1032.43" x2="2427.31" y2="1401.64" gradientUnits="userSpaceOnUse" spreadMethod="reflect" id="fill13"><stop offset="0" stop-color="#F0F8FD" stop-opacity="1"/><stop offset="0.01" stop-color="#F0F8FD" stop-opacity="1"/><stop offset="0.08" stop-color="#275317" stop-opacity="1"/><stop offset="1" stop-color="#275317" stop-opacity="1"/></linearGradient></defs><g transform="translate(-1434 -270)"><g><path d="M0 738.97 369.485 0 1274.52 0 1644 738.97 1274.52 1477.94 369.485 1477.94Z" stroke="#275317" stroke-width="13.75" stroke-linecap="butt" stroke-linejoin="miter" stroke-miterlimit="8" stroke-opacity="1" fill="url(#fill0)" fill-rule="evenodd" transform="matrix(-6.12323e-17 -1 -1 6.12323e-17 2920 1923)"/><path d="M1696.78 1058.41 1724.79 1086.42 1543.83 1267.37 1515.83 1239.37Z" fill="#275317" fill-rule="nonzero" fill-opacity="1"/><path d="M2514.57 937.8 2542.57 965.802 2173.36 1335.01 2145.36 1307.01Z" fill="#275317" fill-rule="nonzero" fill-opacity="1"/><path d="M2549.42 972.659 2577.43 1000.66 2301.07 1277.01 2273.07 1249.01Z" fill="#275317" fill-rule="nonzero" fill-opacity="1"/><path d="M2584.28 1007.52 2612.28 1035.52 2335.93 1311.87 2307.93 1283.87Z" fill="#275317" fill-rule="nonzero" fill-opacity="1"/><path d="M2619.14 1042.38 2647.14 1070.38 2370.79 1346.73 2342.79 1318.73Z" fill="#275317" fill-rule="nonzero" fill-opacity="1"/><path d="M2816.57 1054.1 2844.57 1082.1 2662.77 1263.9 2634.77 1235.9Z" fill="#275317" fill-rule="nonzero" fill-opacity="1"/><path d="M2851.43 1088.96 2879.43 1116.96 2697.63 1298.76 2669.63 1270.75Z" fill="#275317" fill-rule="nonzero" fill-opacity="1"/><path d="M2886.29 1123.82 2914.29 1151.82 2732.49 1333.61 2704.49 1305.61Z" fill="#275317" fill-rule="nonzero" fill-opacity="1"/><path d="M1627.07 988.698 1655.07 1016.7 1474.11 1197.66 1446.11 1169.65Z" fill="url(#fill1)" fill-rule="nonzero"/><path d="M1661.93 1023.56 1689.93 1051.56 1508.97 1232.51 1480.97 1204.51Z" fill="url(#fill2)" fill-rule="nonzero"/><path d="M2102.12 722.798 2130.12 750.8 1681.16 1199.75 1653.16 1171.75Z" fill="url(#fill3)" fill-rule="nonzero"/><path d="M2136.98 757.656 2164.98 785.658 1716.02 1234.61 1688.02 1206.61Z" fill="url(#fill4)" fill-rule="nonzero"/><path d="M2171.83 792.515 2199.84 820.516 1750.88 1269.47 1722.88 1241.47Z" fill="url(#fill5)" fill-rule="nonzero"/><path d="M2206.69 827.373 2234.69 855.375 1785.74 1304.33 1757.74 1276.33Z" fill="url(#fill6)" fill-rule="nonzero"/><path d="M2241.55 862.232 2269.55 890.233 1820.6 1339.19 1792.6 1311.19Z" fill="url(#fill7)" fill-rule="nonzero"/><path d="M2375.13 798.367 2403.13 826.368 2033.93 1195.57 2005.93 1167.57Z" fill="url(#fill8)" fill-rule="nonzero"/><path d="M2409.99 833.225 2437.99 861.227 2068.79 1230.43 2040.79 1202.43Z" fill="url(#fill9)" fill-rule="nonzero"/><path d="M2444.85 868.084 2472.85 896.085 2103.65 1265.29 2075.64 1237.29Z" fill="url(#fill10)" fill-rule="nonzero"/><path d="M2479.71 902.942 2507.71 930.943 2138.5 1300.15 2110.5 1272.15Z" fill="url(#fill11)" fill-rule="nonzero"/><path d="M2746.85 984.381 2774.85 1012.38 2405.65 1381.59 2377.65 1353.59Z" fill="url(#fill12)" fill-rule="nonzero"/><path d="M2782.52 1018.43 2810.52 1046.43 2441.31 1415.64 2413.31 1387.64Z" fill="url(#fill13)" fill-rule="nonzero"/></g></g></svg>